HIERARCHY
ROOT Hips
{
	OFFSET -3.958830 18.904000 13.208200
	CHANNELS 6 Xposition Yposition Zposition Zrotation Yrotation Xrotation 
	JOINT LHipJoint
	{
		OFFSET 0.000000 0.000000 0.000000
		CHANNELS 3 Zrotation Yrotation Xrotation
		JOINT LeftUpLeg
		{
			OFFSET 1.800000 -1.400000 0.085000
			CHANNELS 3 Zrotation Yrotation Xrotation
			JOINT LeftLeg
			{
				OFFSET 2.215000 -6.000000 0.000000
				CHANNELS 3 Zrotation Yrotation Xrotation
				JOINT LeftFoot
				{
					OFFSET 2.500000 -6.900000 0.000000
					CHANNELS 3 Zrotation Yrotation Xrotation
					JOINT LeftToeBase
					{
						OFFSET 0.200000 -0.500000 1.950000
						CHANNELS 3 Zrotation Yrotation Xrotation
						End Site
						{
							OFFSET 0.000000 0.000000 0.000000
						}
					}
				}
			}
		}
	}
	JOINT RHipJoint
	{
		OFFSET 0.000000 0.000000 0.000000
		CHANNELS 3 Zrotation Yrotation Xrotation
		JOINT RightUpLeg
		{
			OFFSET -1.800000 -1.400000 0.085000
			CHANNELS 3 Zrotation Yrotation Xrotation
			JOINT RightLeg
			{
				OFFSET -2.215000 -6.000000 0.000000
				CHANNELS 3 Zrotation Yrotation Xrotation
				JOINT RightFoot
				{
					OFFSET -2.500000 -6.900000 0.000000
					CHANNELS 3 Zrotation Yrotation Xrotation
					JOINT RightToeBase
					{
						OFFSET -0.200000 -0.500000 1.950000
						CHANNELS 3 Zrotation Yrotation Xrotation
						End Site
						{
							OFFSET 0.000000 0.000000 0.000000
						}
					}
				}
			}
		}
	}
	JOINT LowerBack
	{
		OFFSET 0.000000 0.000000 0.000000
		CHANNELS 3 Zrotation Yrotation Xrotation
		JOINT Spine
		{
			OFFSET -0.087000 1.940000 -0.288900
			CHANNELS 3 Zrotation Yrotation Xrotation
			JOINT Spine1
			{
				OFFSET 0.000000 1.950000 0.060000
				CHANNELS 3 Zrotation Yrotation Xrotation
				JOINT Neck
				{
					OFFSET 0.000000 0.000000 0.000000
					CHANNELS 3 Zrotation Yrotation Xrotation
					JOINT Neck1
					{
						OFFSET 0.000000 1.600000 0.340000
						CHANNELS 3 Zrotation Yrotation Xrotation
						JOINT Head
						{
							OFFSET 0.000000 1.667000 -0.240000
							CHANNELS 3 Zrotation Yrotation Xrotation
							End Site
							{
								OFFSET 0.000000 0.000000 0.000000
							}
						}
					}
				}
				JOINT LeftShoulder
				{
					OFFSET 0.000000 0.000000 0.000000
					CHANNELS 3 Zrotation Yrotation Xrotation
					JOINT LeftArm
					{
						OFFSET 2.700000 1.550000 -0.730000
						CHANNELS 3 Zrotation Yrotation Xrotation
						JOINT LeftForeArm
						{
							OFFSET 5.450000 0.000000 0.000000
							CHANNELS 3 Zrotation Yrotation Xrotation
							JOINT LeftHand
							{
								OFFSET 3.450000 0.000000 0.000000
								CHANNELS 3 Zrotation Yrotation Xrotation
								JOINT LeftHandIndex1
								{
									OFFSET 0.750000 0.000000 0.000000
									CHANNELS 3 Zrotation Yrotation Xrotation
									End Site
									{
										OFFSET 0.000000 0.000000 0.000000
									}
								}
							}
						}
					}
				}
				JOINT RightShoulder
				{
					OFFSET 0.000000 0.000000 0.000000
					CHANNELS 3 Zrotation Yrotation Xrotation
					JOINT RightArm
					{
						OFFSET -2.700000 1.550000 -0.730000
						CHANNELS 3 Zrotation Yrotation Xrotation
						JOINT RightForeArm
						{
							OFFSET -5.450000 0.000000 0.000000
							CHANNELS 3 Zrotation Yrotation Xrotation
							JOINT RightHand
							{
								OFFSET -3.450000 0.000000 0.000000
								CHANNELS 3 Zrotation Yrotation Xrotation
								JOINT RightHandIndex1
								{
									OFFSET -0.750000 0.000000 0.000000
									CHANNELS 3 Zrotation Yrotation Xrotation
									End Site
									{
										OFFSET 0.000000 0.000000 0.000000
									}
								}
							}
						}
					}
				}
			}
		}
	}
}
MOTION
Frames: 6
Frame Time: 0.016667
-1.005600 15.301830 -1.705120 -3.711729 -21.360159 -3.325761 -16.091450 8.946193 6.764129 29.340993 2.520902 -49.743414 -35.009600 38.528156 53.287059 2.419506 15.707219 -0.225238 -0.389840 -0.685250 -0.251240 18.371278 -5.642188 4.961059 -43.869776 9.371116 -43.551945 45.633776 -26.223655 36.669891 -1.595766 -10.691644 0.636996 -0.463730 0.849520 0.563730 -3.154722 -2.776914 -10.753654 25.590310 2.038306 60.902599 8.856540 7.806353 9.721666 0.620090 5.993436 -10.214751 14.317180 -7.347251 49.023653 -6.723130 1.510140 12.078140 2.855256 5.926265 2.677553 -6.148568 9.883613 -1.656818 0.751763 -3.533747 -0.797250 -4.489576 2.500954 0.228490 0.503560 -0.075740 0.196840 -4.936270 0.256654 5.795376 41.372677 13.931083 -7.187030 -15.376124 54.809870 -7.846145 2.079971 -1.350987 -0.206310 0.165300 0.344050 0.185990 
-1.014330 15.291500 -1.732180 -3.176242 -20.438095 -4.296369 -16.122065 9.078494 6.748027 28.505316 1.950536 -50.232610 -33.715213 38.393389 54.964134 2.562123 15.688114 -0.226879 -0.218030 -0.420830 -0.184250 18.327488 -5.624519 4.881609 -44.088131 9.382418 -42.274831 45.683379 -26.198195 36.788806 -1.687139 -10.693969 0.647714 -0.380920 0.715590 0.568590 -2.995488 -3.111461 -10.727727 25.243644 1.965423 62.970943 9.834581 7.875136 10.280409 0.401122 5.724388 -10.702627 14.135159 -7.921476 48.662543 -6.414260 0.766460 10.010720 1.473222 4.325463 3.322790 -9.267190 13.572776 -3.024305 0.673954 -7.063105 -0.405497 -4.251704 2.772006 0.193000 0.417880 0.039440 0.277210 -3.122009 2.706408 5.590143 40.562792 15.947913 -6.478065 -25.067605 43.998311 -10.095181 2.203297 -1.365981 -0.071500 0.102300 0.186680 0.242580 
-1.005260 15.324320 -1.763550 -2.858752 -21.428771 -5.798034 -16.207029 9.423032 6.627353 27.515273 2.086363 -49.819207 -30.501021 37.729276 57.609851 2.668079 15.792928 -0.240307 -0.218960 -0.391550 -0.253240 18.224971 -5.522517 4.805905 -43.593431 10.742272 -41.601141 44.930702 -25.653871 37.591969 -1.672681 -10.710406 0.642507 -0.390320 0.702660 0.550120 -2.710743 -3.774682 -10.705091 24.201400 2.299010 68.074374 10.818836 8.866641 8.602298 -0.274522 4.636107 -10.138944 12.376346 -6.645819 46.439657 -4.983350 -0.484750 10.830240 2.137189 5.924540 2.523284 -17.264865 17.206484 -6.629121 -1.206706 -16.282261 0.693454 -3.930462 3.337282 0.141100 0.384950 0.026330 0.315340 -2.594331 4.752535 5.973019 39.522602 18.499743 -5.763349 -30.499453 36.399521 -10.821256 2.363804 -1.484133 -0.030910 0.040610 0.146110 0.298880 
-0.968270 15.366650 -1.742150 -2.441597 -20.760443 -5.932527 -16.222955 9.673119 6.473476 25.285930 0.803301 -50.643950 -26.111115 36.272185 61.264219 2.624788 16.017017 -0.288420 -0.185160 -0.390860 -0.121190 18.172559 -5.567607 4.785402 -43.966613 10.667737 -40.882659 44.235070 -24.968530 37.128131 -1.626249 -10.556158 0.690637 -0.364010 0.636270 0.493620 -2.541616 -4.096853 -10.643200 24.144340 2.193320 69.133777 10.988766 9.885287 7.618874 0.452361 4.558471 -10.540323 13.050650 -7.822500 45.766980 -8.235040 0.217920 10.603430 0.559663 6.010959 2.197494 -21.346405 19.601710 -8.727954 -6.307761 -27.132909 2.591768 -3.576474 3.720463 0.208980 0.354960 0.057310 0.313680 -2.578558 6.106387 6.576981 40.736215 19.228976 -5.990267 -34.017562 30.882893 -11.209319 2.459374 -1.533489 -0.104820 0.069890 0.061930 0.237100 
-0.931120 15.423880 -1.689790 -2.729634 -21.144860 -4.253624 -16.218951 9.724185 6.416757 24.026247 0.657180 -52.351383 -21.020606 35.005165 65.351122 2.514639 16.293134 -0.342713 -0.264180 -0.518320 -0.034050 18.165662 -5.651346 4.805297 -43.177549 11.033090 -41.798106 42.412218 -24.079324 37.164744 -1.492264 -10.320995 0.808740 -0.373990 0.639250 0.363450 -2.529892 -3.932026 -10.629708 23.907694 3.050563 66.744462 10.868846 11.867455 6.310980 1.049158 4.835926 -10.988923 14.531310 -8.973401 46.829893 -11.648880 2.033290 12.513320 -2.125030 5.942760 2.580321 -22.168782 22.040864 -9.234385 -16.333047 -40.408715 6.592807 -3.262189 3.962326 0.292690 0.368900 0.023760 0.274060 -1.325505 6.367771 6.636459 41.583002 18.426188 -6.368097 -33.177635 30.071789 -10.678812 2.473757 -1.425161 -0.283440 0.181430 0.039940 0.147120 
-0.872180 15.541230 -1.641940 -2.623299 -21.093941 -4.460818 -16.119644 10.132019 6.106961 21.491625 -0.471982 -51.225045 -15.997994 32.059664 68.059204 2.347465 16.230360 -0.329945 -0.349660 -0.637010 -0.021960 18.164341 -6.091737 4.661149 -40.892726 11.444525 -40.774648 37.695797 -22.506758 38.575690 -1.341180 -9.988710 0.920049 -0.401660 0.711270 0.323310 -2.579378 -3.800986 -10.423044 23.435336 2.516176 65.792530 9.807264 11.713760 5.322464 1.559908 4.158441 -10.939095 14.082588 -8.263254 48.121750 -13.186010 2.870130 11.756780 -2.746250 6.370316 2.804056 -25.245739 22.501381 -9.674649 -27.894389 -45.484592 11.151501 -3.127375 3.899562 0.359310 0.395820 0.012340 0.245040 -1.723023 6.431871 6.097102 42.434973 20.742666 -5.052981 -27.721931 28.351791 -8.588025 2.457225 -1.244565 -0.394680 0.322550 0.104290 0.110280 
